# xmcd CD database file
#
# Track frame offsets:
#	150
#	16129
#	35419
#	50880
#	70250
#	85964
#	104758
#	116119
#	133040
#	149912
#	169413
#	184157
#	197626
#	217298
#
# Disc length: 3089 seconds
#
# Revision: 2
# Processed by: cddbd v1.5.2PL0 Copyright (c) Steve Scherf et al.
# Submitted via: CDex 2.21
#
DISCID=e70c0f0e
DTITLE=Sarah Connor - Soulicious
DYEAR=2007
DGENRE=Blues
TTITLE0=The Impossible Dream (The Quest)
TTITLE1=Soothe My Soul
TTITLE2=Your Precious Love
TTITLE3=Get It Right
TTITLE4=Part Time Love
TTITLE5=Sexual Healing
TTITLE6=Son Of A Preacher Man
TTITLE7=Soulicious
TTITLE8=Love On A Two Way Street
TTITLE9=One Day I'll Fly Away
TTITLE10=I've Got To Use My Imagination
TTITLE11=I Never Loved A Man (The Way That I Love You)
TTITLE12=Same Old Story (Same Old Song)
TTITLE13=If It's Magic
EXTD=YEAR: 2007
EXTT0=
EXTT1=
EXTT2=
EXTT3=
EXTT4=
EXTT5=
EXTT6=
EXTT7=
EXTT8=
EXTT9=
EXTT10=
EXTT11=
EXTT12=
EXTT13=
PLAYORDER=
